<?xml version="1.0" encoding="UTF-8"?>
<svg id="_Layer_" data-name="&amp;lt;Layer&amp;gt;" xmlns="http://www.w3.org/2000/svg" viewBox="0 0 567.32 130.8">
  <defs>
    <style>
      .cls-1 {
        fill: #3157fd;
        stroke-width: 0px;
      }
    </style>
  </defs>
  <g>
    <path class="cls-1" d="M75.37,37.36h-29.93c.25,2.96,1.28,5.27,3.1,6.95,1.82,1.68,4.07,2.51,6.73,2.51,3.84,0,6.58-1.65,8.21-4.95h11.16c-1.18,3.94-3.45,7.18-6.8,9.72-3.35,2.54-7.46,3.81-12.34,3.81-3.94,0-7.48-.87-10.61-2.62-3.13-1.75-5.57-4.22-7.32-7.43-1.75-3.2-2.62-6.9-2.62-11.09s.86-7.96,2.59-11.16,4.14-5.67,7.24-7.39,6.68-2.59,10.72-2.59,7.38.84,10.46,2.51c3.08,1.68,5.47,4.05,7.17,7.13,1.7,3.08,2.55,6.62,2.55,10.61,0,1.48-.1,2.81-.3,3.99ZM64.95,30.41c-.05-2.66-1.01-4.79-2.88-6.39-1.87-1.6-4.16-2.4-6.87-2.4-2.56,0-4.72.78-6.47,2.33-1.75,1.55-2.82,3.71-3.21,6.47h19.44Z"/>
    <path class="cls-1" d="M86.88,23.13c1.73-3.18,4.11-5.64,7.17-7.39,3.05-1.75,6.55-2.62,10.49-2.62,5.07,0,9.28,1.27,12.6,3.81,3.33,2.54,5.55,6.1,6.69,10.68h-11.16c-.59-1.77-1.59-3.17-2.99-4.18-1.4-1.01-3.14-1.52-5.21-1.52-2.96,0-5.3,1.07-7.02,3.22-1.73,2.14-2.59,5.19-2.59,9.13s.86,6.91,2.59,9.05c1.72,2.14,4.07,3.21,7.02,3.21,4.19,0,6.92-1.87,8.2-5.62h11.16c-1.13,4.43-3.38,7.96-6.73,10.57-3.35,2.61-7.54,3.92-12.56,3.92-3.94,0-7.44-.87-10.49-2.62-3.06-1.75-5.45-4.21-7.17-7.39-1.73-3.18-2.59-6.88-2.59-11.12s.86-7.95,2.59-11.12Z"/>
    <path class="cls-1" d="M164.45,15.23c2.41,1.36,4.3,3.35,5.65,5.99,1.36,2.64,2.03,5.8,2.03,9.5v24.02h-10.35v-22.62c0-3.25-.81-5.75-2.44-7.5-1.63-1.75-3.84-2.62-6.65-2.62s-5.11.87-6.76,2.62c-1.65,1.75-2.48,4.25-2.48,7.5v22.62h-10.35V0h10.35v18.88c1.33-1.77,3.1-3.17,5.32-4.18,2.22-1.01,4.68-1.51,7.39-1.51,3.1,0,5.86.68,8.28,2.03Z"/>
    <path class="cls-1" d="M291.48,13.78v40.95h-10.42v-5.17c-1.33,1.77-3.07,3.17-5.21,4.18-2.14,1.01-4.47,1.52-6.98,1.52-3.2,0-6.04-.68-8.5-2.03-2.46-1.36-4.4-3.35-5.8-5.99-1.4-2.63-2.11-5.78-2.11-9.42V13.78h10.35v22.54c0,3.25.81,5.75,2.44,7.5,1.63,1.75,3.84,2.62,6.65,2.62s5.1-.87,6.73-2.62c1.63-1.75,2.44-4.25,2.44-7.5V13.78h10.42Z"/>
    <path class="cls-1" d="M317.54,14.97c2.34-1.23,5.01-1.85,8.02-1.85,3.5,0,6.66.86,9.5,2.59,2.83,1.73,5.08,4.17,6.73,7.35,1.65,3.18,2.48,6.86,2.48,11.05s-.83,7.9-2.48,11.12c-1.65,3.23-3.89,5.73-6.73,7.5-2.83,1.77-6,2.66-9.5,2.66-3.06,0-5.73-.6-8.02-1.81-2.29-1.21-4.13-2.77-5.51-4.69v5.84h-10.35V.04h10.35v19.73c1.33-1.97,3.16-3.57,5.51-4.8ZM332.17,27.72c-1.01-1.8-2.34-3.17-3.99-4.1-1.65-.94-3.44-1.4-5.36-1.4s-3.63.48-5.28,1.44c-1.65.96-2.98,2.35-3.99,4.17-1.01,1.82-1.51,3.97-1.51,6.43s.5,4.61,1.51,6.43c1.01,1.82,2.34,3.21,3.99,4.18,1.65.96,3.41,1.44,5.28,1.44s3.71-.49,5.36-1.48c1.65-.98,2.98-2.39,3.99-4.21,1.01-1.82,1.51-3.99,1.51-6.5s-.51-4.59-1.51-6.39Z"/>
    <path class="cls-1" d="M34.81,109.95H14.27l-3.4,9.83H0l18.55-51.66h12.05l18.55,51.66h-10.94l-3.4-9.83ZM32,101.68l-7.47-21.58-7.46,21.58h14.93Z"/>
    <path class="cls-1" d="M54.43,88.15c1.65-3.2,3.89-5.67,6.73-7.39,2.83-1.73,6-2.59,9.5-2.59,3.05,0,5.73.62,8.02,1.85,2.29,1.23,4.13,2.78,5.51,4.66v-5.84h10.42v40.95h-10.42v-5.99c-1.33,1.92-3.17,3.51-5.51,4.77-2.34,1.26-5.04,1.89-8.09,1.89-3.45,0-6.59-.89-9.42-2.66s-5.08-4.27-6.73-7.5c-1.65-3.23-2.48-6.93-2.48-11.12s.82-7.81,2.48-11.01ZM82.7,92.84c-.99-1.8-2.32-3.18-3.99-4.14-1.68-.96-3.47-1.44-5.39-1.44s-3.7.47-5.32,1.4c-1.63.94-2.94,2.3-3.95,4.1-1.01,1.8-1.52,3.93-1.52,6.39s.51,4.62,1.52,6.47c1.01,1.85,2.34,3.27,3.99,4.25,1.65.99,3.41,1.48,5.28,1.48s3.72-.48,5.39-1.44c1.67-.96,3.01-2.34,3.99-4.14.98-1.8,1.48-3.95,1.48-6.47s-.49-4.67-1.48-6.47Z"/>
    <path class="cls-1" d="M120.09,80.09c2.14-1.23,4.59-1.85,7.35-1.85v10.86h-2.74c-3.25,0-5.7.77-7.35,2.29-1.65,1.53-2.48,4.19-2.48,7.98v20.4h-10.35v-40.95h10.35v6.36c1.33-2.17,3.07-3.87,5.21-5.1Z"/>
    <path class="cls-1" d="M164.45,80.28c2.41,1.36,4.3,3.35,5.65,5.99,1.35,2.64,2.03,5.8,2.03,9.5v24.02h-10.35v-22.62c0-3.25-.81-5.75-2.44-7.5-1.63-1.75-3.84-2.62-6.65-2.62s-5.11.87-6.76,2.62c-1.65,1.75-2.48,4.25-2.48,7.5v22.62h-10.35v-54.69h10.35v18.85c1.33-1.77,3.1-3.17,5.32-4.18,2.22-1.01,4.68-1.51,7.39-1.51,3.11,0,5.86.68,8.28,2.03Z"/>
    <path class="cls-1" d="M237.47,118.64c-2.66-1.21-4.77-2.85-6.32-4.92-1.55-2.07-2.4-4.36-2.55-6.87h10.42c.2,1.58.97,2.88,2.33,3.92,1.35,1.04,3.04,1.55,5.06,1.55s3.51-.39,4.62-1.18,1.66-1.8,1.66-3.03c0-1.33-.68-2.33-2.03-2.99-1.36-.67-3.51-1.39-6.47-2.18-3.06-.74-5.56-1.5-7.5-2.29-1.95-.79-3.62-1.99-5.03-3.62-1.4-1.63-2.11-3.82-2.11-6.58,0-2.27.65-4.33,1.96-6.21,1.3-1.87,3.18-3.35,5.62-4.43,2.44-1.08,5.31-1.63,8.61-1.63,4.88,0,8.77,1.22,11.68,3.66,2.91,2.44,4.51,5.73,4.8,9.87h-9.9c-.15-1.63-.83-2.92-2.03-3.88-1.21-.96-2.82-1.44-4.84-1.44-1.87,0-3.31.35-4.32,1.04-1.01.69-1.52,1.65-1.52,2.88,0,1.38.69,2.43,2.07,3.14,1.38.72,3.52,1.44,6.43,2.18,2.96.74,5.4,1.5,7.32,2.29,1.92.79,3.58,2.01,4.99,3.66,1.4,1.65,2.13,3.83,2.18,6.54,0,2.36-.65,4.48-1.96,6.36-1.31,1.87-3.18,3.34-5.62,4.4-2.44,1.06-5.28,1.59-8.54,1.59s-6.36-.6-9.02-1.81Z"/>
    <path class="cls-1" d="M.61,0v8.35h13.75v36.02h10.35V8.35h13.75V0H.61ZM4,54.73h10.36v-10.36H4v10.36Z"/>
    <path class="cls-1" d="M232.28,0v24.35h-22.1v-13.99h-10.35v44.37h10.35v-21.95h22.1v21.95h10.35V0h-10.35ZM189.48,0v10.36h10.36V0h-10.36Z"/>
    <path class="cls-1" d="M210.2,89.2v12.18c0,3.25-.81,5.75-2.44,7.5-1.63,1.75-3.87,2.62-6.73,2.62s-5.02-.87-6.65-2.62c-1.63-1.75-2.44-4.25-2.44-7.5v-22.54h-10.35v24.02c0,3.65.7,6.79,2.11,9.42,1.4,2.64,3.34,4.63,5.8,5.99,2.46,1.36,5.3,2.03,8.5,2.03,2.51,0,4.84-.51,6.98-1.52,2.14-1.01,3.88-2.4,5.21-4.18v5.17h10.42v-30.59h-10.42ZM199.84,78.84v10.36h10.36v-10.36h-10.36Z"/>
  </g>
  <g>
    <path class="cls-1" d="M390.98,7.2c1.27-2.26,3.01-4.01,5.22-5.27,2.21-1.26,4.68-1.89,7.42-1.89,3.21,0,6.02.83,8.43,2.49,2.41,1.66,4.1,3.96,5.06,6.89h-6.62c-.66-1.38-1.58-2.42-2.77-3.12-1.19-.69-2.57-1.04-4.13-1.04-1.67,0-3.16.39-4.46,1.18s-2.32,1.9-3.04,3.34c-.73,1.44-1.09,3.13-1.09,5.07s.36,3.59,1.09,5.05,1.74,2.58,3.04,3.36,2.79,1.18,4.46,1.18c1.56,0,2.94-.35,4.13-1.06,1.19-.71,2.12-1.75,2.77-3.14h6.62c-.96,2.96-2.64,5.27-5.04,6.91-2.4,1.65-5.22,2.47-8.45,2.47-2.74,0-5.22-.63-7.42-1.89-2.21-1.26-3.95-3.01-5.22-5.25-1.27-2.24-1.91-4.79-1.91-7.64s.64-5.41,1.91-7.66Z"/>
    <path class="cls-1" d="M426.51,28.3c-1.75-.98-3.13-2.37-4.13-4.17-1-1.8-1.5-3.88-1.5-6.23s.51-4.43,1.54-6.23c1.03-1.8,2.43-3.19,4.21-4.17,1.78-.98,3.77-1.47,5.96-1.47s4.18.49,5.96,1.47c1.78.98,3.19,2.37,4.21,4.17,1.03,1.8,1.54,3.88,1.54,6.23s-.53,4.43-1.58,6.23c-1.06,1.8-2.48,3.19-4.28,4.17-1.8.98-3.8,1.47-6.02,1.47s-4.17-.49-5.92-1.47ZM435.37,23.94c.92-.51,1.65-1.28,2.2-2.3s.82-2.27.82-3.74c0-2.19-.57-3.87-1.71-5.05-1.14-1.18-2.53-1.76-4.17-1.76s-3.02.59-4.13,1.76c-1.11,1.18-1.67,2.86-1.67,5.05s.54,3.87,1.62,5.05c1.08,1.18,2.45,1.77,4.09,1.77,1.04,0,2.02-.26,2.94-.77Z"/>
    <path class="cls-1" d="M468.03,8.66c1.67,1.73,2.51,4.15,2.51,7.25v13.5h-5.76v-12.71c0-1.83-.45-3.23-1.36-4.22s-2.14-1.47-3.7-1.47-2.84.49-3.76,1.47-1.38,2.39-1.38,4.22v12.71h-5.76V6.39h5.76v2.87c.77-1,1.75-1.78,2.94-2.35,1.19-.57,2.5-.85,3.93-.85,2.71,0,4.91.86,6.58,2.6Z"/>
    <path class="cls-1" d="M495.49,8.66c1.67,1.73,2.51,4.15,2.51,7.25v13.5h-5.76v-12.71c0-1.83-.45-3.23-1.36-4.22s-2.14-1.47-3.7-1.47-2.84.49-3.76,1.47c-.92.98-1.38,2.39-1.38,4.22v12.71h-5.76V6.39h5.76v2.87c.77-1,1.75-1.78,2.94-2.35s2.5-.85,3.93-.85c2.71,0,4.91.86,6.58,2.6Z"/>
    <path class="cls-1" d="M524.75,19.64h-16.65c.14,1.66.71,2.96,1.73,3.9,1.01.94,2.26,1.41,3.74,1.41,2.14,0,3.66-.93,4.56-2.78h6.21c-.66,2.22-1.92,4.04-3.78,5.46-1.86,1.43-4.15,2.14-6.87,2.14-2.19,0-4.16-.49-5.9-1.47-1.74-.98-3.1-2.37-4.07-4.17-.97-1.8-1.46-3.88-1.46-6.23s.48-4.47,1.44-6.27c.96-1.8,2.3-3.18,4.03-4.15s3.71-1.45,5.96-1.45,4.1.47,5.82,1.41c1.71.94,3.04,2.28,3.99,4.01.95,1.73,1.42,3.72,1.42,5.96,0,.83-.05,1.58-.16,2.24ZM518.96,15.74c-.03-1.49-.56-2.69-1.6-3.59-1.04-.9-2.32-1.35-3.82-1.35-1.43,0-2.62.44-3.6,1.31-.97.87-1.57,2.08-1.79,3.63h10.81Z"/>
    <path class="cls-1" d="M530.45,11.65c.96-1.79,2.29-3.17,3.99-4.15,1.7-.98,3.64-1.47,5.84-1.47,2.82,0,5.16.71,7.01,2.14,1.85,1.43,3.09,3.43,3.72,6h-6.21c-.33-1-.88-1.78-1.66-2.35s-1.75-.85-2.9-.85c-1.64,0-2.95.6-3.91,1.81-.96,1.2-1.44,2.91-1.44,5.13s.48,3.88,1.44,5.09c.96,1.2,2.26,1.81,3.91,1.81,2.33,0,3.85-1.05,4.56-3.16h6.21c-.63,2.49-1.88,4.47-3.74,5.94-1.86,1.47-4.19,2.2-6.99,2.2-2.19,0-4.14-.49-5.84-1.47s-3.03-2.37-3.99-4.15-1.44-3.87-1.44-6.25.48-4.46,1.44-6.25Z"/>
    <path class="cls-1" d="M562.22,11.17v11.13c0,.78.19,1.34.55,1.68.37.35.99.52,1.87.52h2.67v4.9h-3.62c-4.85,0-7.28-2.38-7.28-7.14v-11.09h-2.71v-4.78h2.71V.7h5.8v5.69h5.1v4.78h-5.1Z"/>
    <path class="cls-1" d="M396.22,70.01h9.46v4.61h-15.21v-28.99h5.76v24.38Z"/>
    <path class="cls-1" d="M430.79,64.86h-16.65c.14,1.66.71,2.96,1.73,3.9,1.01.94,2.26,1.41,3.74,1.41,2.14,0,3.66-.93,4.56-2.78h6.21c-.66,2.22-1.92,4.04-3.78,5.46-1.86,1.43-4.15,2.14-6.87,2.14-2.19,0-4.16-.49-5.9-1.47-1.74-.98-3.1-2.37-4.07-4.17-.97-1.8-1.46-3.88-1.46-6.23s.48-4.47,1.44-6.27,2.3-3.18,4.03-4.15,3.71-1.45,5.96-1.45,4.1.47,5.82,1.41c1.71.94,3.04,2.28,3.99,4.01.95,1.73,1.42,3.72,1.42,5.96,0,.83-.06,1.58-.17,2.24ZM424.99,60.95c-.03-1.49-.56-2.69-1.6-3.59-1.04-.9-2.32-1.35-3.82-1.35-1.43,0-2.63.44-3.6,1.31-.97.87-1.57,2.08-1.79,3.63h10.81Z"/>
    <path class="cls-1" d="M436.43,56.84c.92-1.8,2.16-3.18,3.74-4.15,1.58-.97,3.34-1.45,5.28-1.45,1.7,0,3.19.35,4.46,1.04s2.3,1.56,3.06,2.62v-3.28h5.8v23.01h-5.8v-3.36c-.74,1.08-1.76,1.97-3.06,2.68-1.3.71-2.8,1.06-4.5,1.06-1.92,0-3.67-.5-5.24-1.49-1.58-1-2.82-2.4-3.74-4.22-.92-1.81-1.38-3.9-1.38-6.25s.46-4.39,1.38-6.19ZM452.15,59.48c-.55-1.01-1.29-1.79-2.22-2.33-.93-.54-1.93-.81-3-.81s-2.06.26-2.96.79c-.91.53-1.64,1.29-2.2,2.3-.56,1.01-.84,2.21-.84,3.59s.28,2.6.84,3.63c.56,1.04,1.3,1.83,2.22,2.39.92.55,1.9.83,2.94.83s2.07-.27,3-.81c.93-.54,1.67-1.31,2.22-2.33.55-1.01.82-2.22.82-3.63s-.27-2.62-.82-3.63Z"/>
    <path class="cls-1" d="M473.34,52.32c1.19-.69,2.56-1.04,4.09-1.04v6.1h-1.52c-1.81,0-3.17.43-4.09,1.29s-1.38,2.35-1.38,4.48v11.46h-5.76v-23.01h5.76v3.57c.74-1.22,1.71-2.17,2.9-2.87Z"/>
    <path class="cls-1" d="M500.78,53.87c1.67,1.73,2.51,4.15,2.51,7.25v13.5h-5.76v-12.71c0-1.83-.45-3.23-1.36-4.22-.9-.98-2.14-1.47-3.7-1.47s-2.84.49-3.76,1.47c-.92.98-1.38,2.39-1.38,4.22v12.71h-5.76v-23.01h5.76v2.87c.77-1,1.75-1.78,2.94-2.35s2.5-.85,3.93-.85c2.71,0,4.91.86,6.58,2.6Z"/>
    <path class="cls-1" d="M408.45,92.63c2.29,1.19,4.06,2.89,5.3,5.09,1.25,2.2,1.87,4.76,1.87,7.66s-.62,5.45-1.87,7.62c-1.25,2.17-3.02,3.86-5.3,5.05s-4.94,1.79-7.96,1.79h-10.03v-28.99h10.03c3.02,0,5.67.6,7.96,1.79ZM407.28,112.4c1.64-1.66,2.47-4,2.47-7.02s-.82-5.38-2.47-7.08c-1.65-1.7-3.97-2.55-6.99-2.55h-4.07v19.15h4.07c3.02,0,5.35-.83,6.99-2.49Z"/>
    <path class="cls-1" d="M442.06,110.08h-16.65c.14,1.66.71,2.96,1.73,3.9,1.01.94,2.26,1.41,3.74,1.41,2.14,0,3.66-.93,4.56-2.78h6.21c-.66,2.22-1.92,4.04-3.78,5.46-1.86,1.43-4.15,2.14-6.87,2.14-2.19,0-4.16-.49-5.9-1.47-1.74-.98-3.1-2.37-4.07-4.17-.97-1.8-1.46-3.88-1.46-6.23s.48-4.47,1.44-6.27c.96-1.8,2.3-3.18,4.03-4.15s3.71-1.45,5.96-1.45,4.1.47,5.82,1.41c1.71.94,3.04,2.28,3.99,4.01.95,1.73,1.42,3.72,1.42,5.96,0,.83-.05,1.58-.16,2.24ZM436.26,106.17c-.03-1.49-.56-2.69-1.6-3.59-1.04-.9-2.32-1.35-3.82-1.35-1.43,0-2.62.44-3.6,1.31-.97.87-1.57,2.08-1.79,3.63h10.81Z"/>
    <path class="cls-1" d="M456.19,114.48l5.76-17.65h6.13l-8.43,23.01h-6.99l-8.39-23.01h6.17l5.76,17.65Z"/>
    <path class="cls-1" d="M492.61,110.08h-16.65c.14,1.66.71,2.96,1.73,3.9,1.01.94,2.26,1.41,3.74,1.41,2.14,0,3.66-.93,4.56-2.78h6.21c-.66,2.22-1.92,4.04-3.78,5.46-1.86,1.43-4.15,2.14-6.87,2.14-2.19,0-4.16-.49-5.9-1.47-1.74-.98-3.1-2.37-4.07-4.17-.97-1.8-1.46-3.88-1.46-6.23s.48-4.47,1.44-6.27c.96-1.8,2.3-3.18,4.03-4.15,1.73-.97,3.71-1.45,5.96-1.45s4.1.47,5.82,1.41c1.71.94,3.04,2.28,3.99,4.01.94,1.73,1.42,3.72,1.42,5.96,0,.83-.05,1.58-.16,2.24ZM486.81,106.17c-.03-1.49-.56-2.69-1.6-3.59-1.04-.9-2.32-1.35-3.82-1.35-1.42,0-2.62.44-3.6,1.31-.97.87-1.57,2.08-1.79,3.63h10.81Z"/>
    <path class="cls-1" d="M503.28,89.1v30.73h-5.76v-30.73h5.76Z"/>
    <path class="cls-1" d="M513.43,118.74c-1.75-.98-3.13-2.37-4.13-4.17-1-1.8-1.5-3.88-1.5-6.23s.51-4.43,1.54-6.23c1.03-1.8,2.43-3.19,4.21-4.17,1.78-.98,3.77-1.47,5.96-1.47s4.18.49,5.96,1.47c1.78.98,3.19,2.37,4.21,4.17,1.03,1.8,1.54,3.88,1.54,6.23s-.53,4.43-1.58,6.23c-1.06,1.8-2.48,3.19-4.28,4.17-1.8.98-3.8,1.47-6.02,1.47s-4.17-.49-5.92-1.47ZM522.29,114.38c.92-.51,1.65-1.28,2.2-2.3s.82-2.27.82-3.74c0-2.19-.57-3.87-1.71-5.05-1.14-1.18-2.53-1.76-4.17-1.76s-3.02.59-4.13,1.76c-1.11,1.18-1.66,2.86-1.66,5.05s.54,3.87,1.62,5.05c1.08,1.18,2.45,1.77,4.09,1.77,1.04,0,2.02-.26,2.94-.77Z"/>
    <path class="cls-1" d="M544.57,97.51c1.3-.71,2.79-1.06,4.46-1.06,1.95,0,3.71.48,5.28,1.45s2.82,2.35,3.74,4.13c.92,1.79,1.38,3.86,1.38,6.21s-.46,4.44-1.38,6.25-2.17,3.22-3.74,4.22-3.34,1.49-5.28,1.49c-1.67,0-3.15-.35-4.42-1.04-1.27-.69-2.31-1.56-3.1-2.62v14.25h-5.76v-33.97h5.76v3.32c.74-1.05,1.76-1.93,3.06-2.64ZM552.71,104.66c-.56-1.01-1.3-1.78-2.22-2.3-.92-.53-1.91-.79-2.98-.79s-2.02.27-2.94.81c-.92.54-1.66,1.32-2.22,2.35-.56,1.02-.84,2.23-.84,3.61s.28,2.59.84,3.61c.56,1.02,1.3,1.81,2.22,2.35.92.54,1.9.81,2.94.81s2.06-.28,2.98-.83c.92-.55,1.66-1.34,2.22-2.37.56-1.02.84-2.24.84-3.66s-.28-2.58-.84-3.59Z"/>
  </g>
</svg>